<?xml version="1.0" encoding="utf-8"?>
<!-- Generator: Adobe Illustrator 21.1.0, SVG Export Plug-In . SVG Version: 6.00 Build 0)  -->
<svg version="1.1" id="Слой_1" xmlns="http://www.w3.org/2000/svg" xmlns:xlink="http://www.w3.org/1999/xlink" x="0px" y="0px"
	 viewBox="0 0 16 16" style="enable-background:new 0 0 16 16;" xml:space="preserve">
<style type="text/css">
	.st0{opacity:0.3;enable-background:new    ;}
</style>
<path id="In_alt_copy_3" class="st0" d="M16,1v14c0,0.6-0.4,1-1,1H8c-0.6,0-1-0.4-1-1s0.4-1,1-1h6V2H8C7.4,2,7,1.6,7,1s0.4-1,1-1h7
	C15.6,0,16,0.4,16,1z M0,8c0-0.6,0.4-1,1-1h9c0.6,0,1,0.4,1,1s-0.4,1-1,1H1C0.4,9,0,8.6,0,8z M9,9V7h2v2H9z M7,12l4-4L7,4V12z"/>
<rect x="7" y="7" class="st0" width="2" height="2"/>
</svg>
