<?xml version="1.0" encoding="utf-8"?>
<!-- Generator: Adobe Illustrator 21.1.0, SVG Export Plug-In . SVG Version: 6.00 Build 0)  -->
<svg version="1.1" id="Layer_2" xmlns="http://www.w3.org/2000/svg" xmlns:xlink="http://www.w3.org/1999/xlink" x="0px" y="0px"
	 viewBox="0 0 404.2 404.2" style="enable-background:new 0 0 404.2 404.2;" xml:space="preserve">
<style type="text/css">
	.st0{fill-rule:evenodd;clip-rule:evenodd;fill:#826550;}
</style>
<g>
	<g>
		<path class="st0" d="M387.5,121.9c-9-20.8-21.4-39.7-36.5-56.2c-2.8,5.4-5.6,10.8-8.5,16.2c11.1,12.9,20.4,27.4,27.6,43
			C375.9,123.8,381.7,122.8,387.5,121.9z"/>
	</g>
	<g>
		<path class="st0" d="M386.4,187c0.4,5,0.7,10,0.7,15.1C387,304.2,304.2,387,202.1,387c-3.4,0-6.7-0.1-10.1-0.3
			c0.6,2.4,1,5,0.9,7.9c0,3.2-0.7,6.3-1.7,9.3c3.6,0.2,7.2,0.3,10.8,0.3c111.4,0,202.1-90.7,202.1-202.1c0-9-0.6-17.8-1.8-26.4
			C397.3,179.7,391.9,183.5,386.4,187z"/>
	</g>
	<g>
		<path class="st0" d="M17.2,202.1C17.2,100,100,17.2,202.1,17.2c33.7,0,65.3,9.1,92.6,24.9c4.7-3.7,9.5-7.5,14.4-11.3
			C278.1,11.3,241.4,0,202.1,0C90.7,0,0,90.7,0,202.1c0,85,52.8,157.9,127.3,187.7c-1.7-6.4-2.4-13.2-2.4-19.7
			C61.3,340.9,17.2,276.6,17.2,202.1z"/>
	</g>
	<g>
		<path class="st0" d="M166.4,364.5c33.2-11.7,70-41.5,62.4-85.1c-3.9-22.1-19.2-21.5-31.2-39.7c62-51.5,103.9-123,141.8-198.6
			c-2.8,0-5.7,0-8.5,0c-32,24.3-94,72.9-122,113.5c-11.2,16.2-19.7,40-31.2,59.6c-19.5,33.2-64.9,91.1-28.4,133.3
			c-5.9,19.8-5.2,53.2,17,53.9C180.4,393.9,160.5,381.6,166.4,364.5z M202.1,197.8c6.1,0,11.1,5,11.1,11.1c0,6.1-5,11.1-11.1,11.1
			s-11.1-5-11.1-11.1C191,202.8,196,197.8,202.1,197.8z M157.9,321.9c-8-38.6,30.1-72.8,51.1-39.7
			C210.1,314,182.4,349.9,157.9,321.9z"/>
	</g>
	<g>
		<path class="st0" d="M240.2,219.8c59.9-22.3,131.3-33.3,167.4-79.4c-40.4,5.9-77.8,14.9-119.1,19.9
			C279.2,187,258.2,201.9,240.2,219.8z"/>
	</g>
	<g>
		<path class="st0" d="M52.9,171.6c-18.1,52.6,36.2,68.6,93.6,59.6c16.2-20.7,25.1-42.8,8.5-68.1C134.1,131,65.3,135.7,52.9,171.6z
			 M75.6,202.8c-22-46.5,55.3-47.5,62.4-22.7C147.4,212.8,99,214.5,75.6,202.8z"/>
	</g>
</g>
</svg>
