<svg xmlns="http://www.w3.org/2000/svg" xmlns:xlink="http://www.w3.org/1999/xlink"><symbol id="adv1" viewBox="0 0 94.2 88.6">
<style type="text/css">
	.st0{fill:#826550;}
</style>
<g>
	<g>
		<path class="st0" d="M87.2,22.4c-0.6,1.7-1.1,3.5-1.7,5.2c3,5.8,4.7,12.4,4.7,19.4c0,14.2-7,26.9-17.6,34.7
			c1.2,0.7,2.2,1.6,3.1,2.7c11.2-8.6,18.5-22.2,18.5-37.4C94.2,38,91.6,29.6,87.2,22.4z"/>
		<path class="st0" d="M9.5,70.3c0.4,0,0.9,0,1.3,0C6.5,63.6,4,55.7,4,47.1C4,23.3,23.3,4,47.1,4C53.9,4,60.3,5.6,66,8.4
			c0.7-1.2,1.5-2.3,2.4-3.3C62,1.9,54.8,0,47.1,0C21.1,0,0,21.1,0,47.1c0,8.5,2.3,16.5,6.2,23.4C7.4,70.4,8.5,70.3,9.5,70.3z"/>
	</g>
</g>
<path class="st0" d="M53.5,82c0.4-6.1-0.9-14,0.7-19.1c4.5-0.1,9.6,0.4,13.2-0.7c8.2-14.8,12-34,18.4-50.6c0-0.9,0-1.8,0-2.6
	C85,6,81.9,5.3,79.1,4.4c-0.2,0-0.4,0-0.7,0C67.8,7.9,66.5,20.5,64,32.1C48.2,27.9,31.7,32,31.1,47.2c-4.5,0.1-8,1.2-9.9,3.9
	c-0.6,6.7,1.6,10.7,6.6,11.8c-1.2,5.3-3.6,9.5-7.2,12.5c-6.4,0.6-15.6-1.6-19.1,2c0,0.9,0,1.8,0,2.6c3.2,3.9,12.9,1.2,19.1,2
	c6.6-3.9,8.5-12.6,11.8-19.7c4.7,0.4,10.9-0.8,14.5,0.7c0,6.6,0,13.2,0,19.7c-7.8,0.5-15.4,1.2-19.1,5.9c14.9,0,29.8,0,44.7,0
	C69.3,83.3,60.1,84,53.5,82z M37.7,47.2c0.7-11.7,15.4-11.7,25.6-8.5c0.1,4.7-0.5,10.2,1.3,13.2C57.6,50.9,47.6,47.4,37.7,47.2z"/>
</symbol><symbol id="adv2" viewBox="0 0 94.2 92">
<style type="text/css">
	.st0{fill:#826550;}
</style>
<circle class="st0" cx="47.1" cy="17.3" r="9.1"/>
<path class="st0" d="M67.5,26.4H47.1H26.7c-1.6,0-2.8,1.3-2.8,2.8v4.5c0,1.6,1.3,2.8,2.8,2.8h0.8v45.4h-0.8c-1.6,0-2.8,1.3-2.8,2.8
	v4.5c0,1.6,1.3,2.8,2.8,2.8h40.8c1.6,0,2.8-1.3,2.8-2.8v-4.5c0-1.5-1.3-2.8-2.8-2.8h-0.8V36.5h0.8c1.6,0,2.8-1.3,2.8-2.8v-4.5
	C70.3,27.7,69,26.4,67.5,26.4z M33.7,36.5h13.2L33.7,49.7V36.5z M60.5,81.9H47l13.5-13.5V81.9z M60.5,53.2L33.7,80V64.9l26.8-26.8
	V53.2z"/>
<path class="st0" d="M47.1,0C21.1,0,0,21.1,0,47.1c0,15.4,7.4,29.1,18.9,37.7v-0.1c0-1.5,0.4-2.9,1.2-4.1C10.3,72.7,4,60.6,4,47.1
	C4,23.3,23.3,4,47.1,4c23.8,0,43.1,19.3,43.1,43.1c0,13.5-6.3,25.6-16.1,33.5c0.7,1.2,1.2,2.6,1.2,4.1v0.1
	c11.5-8.6,18.9-22.3,18.9-37.7C94.2,21.1,73.1,0,47.1,0z"/>
</symbol><symbol id="adv3" viewBox="0 0 404.2 404.2">
<style type="text/css">
	.st0{fill-rule:evenodd;clip-rule:evenodd;fill:#826550;}
</style>
<g>
	<g>
		<path class="st0" d="M387.5,121.9c-9-20.8-21.4-39.7-36.5-56.2c-2.8,5.4-5.6,10.8-8.5,16.2c11.1,12.9,20.4,27.4,27.6,43
			C375.9,123.8,381.7,122.8,387.5,121.9z"/>
	</g>
	<g>
		<path class="st0" d="M386.4,187c0.4,5,0.7,10,0.7,15.1C387,304.2,304.2,387,202.1,387c-3.4,0-6.7-0.1-10.1-0.3
			c0.6,2.4,1,5,0.9,7.9c0,3.2-0.7,6.3-1.7,9.3c3.6,0.2,7.2,0.3,10.8,0.3c111.4,0,202.1-90.7,202.1-202.1c0-9-0.6-17.8-1.8-26.4
			C397.3,179.7,391.9,183.5,386.4,187z"/>
	</g>
	<g>
		<path class="st0" d="M17.2,202.1C17.2,100,100,17.2,202.1,17.2c33.7,0,65.3,9.1,92.6,24.9c4.7-3.7,9.5-7.5,14.4-11.3
			C278.1,11.3,241.4,0,202.1,0C90.7,0,0,90.7,0,202.1c0,85,52.8,157.9,127.3,187.7c-1.7-6.4-2.4-13.2-2.4-19.7
			C61.3,340.9,17.2,276.6,17.2,202.1z"/>
	</g>
	<g>
		<path class="st0" d="M166.4,364.5c33.2-11.7,70-41.5,62.4-85.1c-3.9-22.1-19.2-21.5-31.2-39.7c62-51.5,103.9-123,141.8-198.6
			c-2.8,0-5.7,0-8.5,0c-32,24.3-94,72.9-122,113.5c-11.2,16.2-19.7,40-31.2,59.6c-19.5,33.2-64.9,91.1-28.4,133.3
			c-5.9,19.8-5.2,53.2,17,53.9C180.4,393.9,160.5,381.6,166.4,364.5z M202.1,197.8c6.1,0,11.1,5,11.1,11.1c0,6.1-5,11.1-11.1,11.1
			s-11.1-5-11.1-11.1C191,202.8,196,197.8,202.1,197.8z M157.9,321.9c-8-38.6,30.1-72.8,51.1-39.7
			C210.1,314,182.4,349.9,157.9,321.9z"/>
	</g>
	<g>
		<path class="st0" d="M240.2,219.8c59.9-22.3,131.3-33.3,167.4-79.4c-40.4,5.9-77.8,14.9-119.1,19.9
			C279.2,187,258.2,201.9,240.2,219.8z"/>
	</g>
	<g>
		<path class="st0" d="M52.9,171.6c-18.1,52.6,36.2,68.6,93.6,59.6c16.2-20.7,25.1-42.8,8.5-68.1C134.1,131,65.3,135.7,52.9,171.6z
			 M75.6,202.8c-22-46.5,55.3-47.5,62.4-22.7C147.4,212.8,99,214.5,75.6,202.8z"/>
	</g>
</g>
</symbol><symbol id="logo_d" viewBox="0 0 374.7 157.2">
<style type="text/css">
	.st0{fill:#FFFFFF;}
	.st1{fill:#3F3F3F;}
	.st2{fill-rule:evenodd;clip-rule:evenodd;fill:#FFFFFF;}
</style>
<g>
	<path class="st0" d="M125.1,15.6c7.2-2.4,7.7-11.4,0.7-11.4c-1.9,0-4.3,1.4-5.9,4.2l-9.6,16.6c-0.4,0.8-0.9,1.4-1.4,2
		c-2.5-3.4-1.7-8.5,1.7-10.7l-1.4-1.8c-7.5,4.8-5.3,18.5,7.2,18.5C127,32.9,132,20.1,125.1,15.6z M116.3,30.2
		c-2.1,0-3.8-0.5-5.1-1.2c0.6-0.7,1.2-1.6,1.8-2.5l6-10.4l1,0.1C128.3,17.9,124.9,30.2,116.3,30.2z M120.2,14L123,9
		c2.6-4.5,5.9-1.8,4.1,1.5C125.8,13.1,123.8,13.9,120.2,14z"/>
	<path class="st0" d="M264.5,23.1l-0.2,0.3c-2,2.3-4.3,4.2-6.5,5c0.6-0.9,1-1.9,1.5-2.7l3.9-6.7c3.3-5.6-2.1-7.5-5.7-4.3l0.7-1.2
		h-3.6l-5.6,9.7c0,0,0,0,0,0l-0.2,0.3c-1.6,1.7-3.6,2.6-5.4,2.6l3.4-5.8c2.2-3.7,0.2-7.3-3.2-7.3c-2.7,0-4.9,1.1-6.9,4.7l-1.7,3
		l-1.5,2.5l-0.2,0.2c-2.6,3-5.1,5.3-6.6,5.3c-0.8,0-1.2-0.5-0.4-2l5.1-9c1.5-2.7,0.1-4.7-1.9-4.7c-1.5,0-3.2,0.9-5,2.7l5.7-9.9h-3.6
		l-9.9,17.2l-0.2,0.2c-1.3,1.5-2.9,2.9-4.3,3.9c1.1-3.4,0.9-8.6,3.1-13.1l-2.7-1.4c-1.5,2-4.7,6.7-7.9,10.4c0,0,0,0,0,0s0,0,0,0
		l-0.2,0.3c-2.6,3-5.1,5.3-6.6,5.3c-0.8,0-1.2-0.5-0.4-2l3.6-6.2c1.2-2.2,0.6-3.4-0.5-4.8l-2-2.4c-0.5-0.7-0.5-1.4,0.2-2.1l-1.8-2
		c-2,1.8-2.2,3.8-0.9,5.5l0.3,0.4c-1.6,2.2-3.7,5.2-6,8l-0.2,0.3c-2.6,3-5.9,5.3-8.3,5.3c-2.2,0-3.5-1.4-1.8-4.2l0.3-0.6
		c2.3,1,6.6,0.5,9.3-4.1l0.5-0.9c1.9-3.3,0.1-5.7-2.8-5.7c-2.9,0-5.2,1.5-6.7,4.1l-3.4,5.9l-0.2,0.2c-1.6,1.8-3.6,2.6-5.4,2.6
		l3.4-5.8c0.9-1.6,1.3-2.9,1.3-4.1c0-1.8-1.2-3.2-3.2-3.2c-0.9,0-1.6,0.3-2.3,0.8l4.5-7.8h-3.6l-10,17.2l-0.2,0.2
		c-2.6,3-5.1,5.3-6.6,5.3c-0.8,0-1.2-0.5-0.4-2l3.6-6.2c1.2-2.2,0.6-3.4-0.5-4.8l-2-2.4c-0.5-0.7-0.5-1.4,0.2-2.1l-1.8-2
		c-2,1.8-2.2,3.8-0.9,5.5l0.3,0.4c-1.6,2.2-3.7,5.2-6,8l-0.2,0.3c-2.6,3-5.1,5.3-6.6,5.3c-0.8,0-1.2-0.5-0.4-2l5.7-10.1h-2
		c0.1-1.5-1.4-3.6-3.7-3.6c-1.9,0-4.6,1.5-6.1,4.1l-5,8.6c-1.5,2.6-0.4,5.1,2.4,5.1c1.4,0,3.2-0.9,4.9-2.3c0.2,1.4,1.3,2.3,3.1,2.3
		c2.9,0,6.3-3.1,9.3-6.6l0,0c1.7-2,3-3.8,5.9-7.6l0.5,0.6c0.4,0.6,0.6,1.3,0.2,2l-3.8,6.5c-1.5,2.6-0.4,5.1,2.4,5.1
		c2.1,0,4.3-1.5,6.5-3.7c0,0,0,0,0,0c0,2.4,1.8,3.8,4.1,3.8c2,0,4.3-1,6.1-3.3c0.3,0,0.5,0,0.8,0c1.3,0,3.1-0.5,4.7-1.4
		c-0.2,2.6,1.7,4.5,4.8,4.5c4,0,8-3.1,11-6.6c1.7-2,3-3.8,5.9-7.6l0.5,0.6c0.4,0.6,0.6,1.3,0.2,2l-3.8,6.5c-1.5,2.6-0.4,5.1,2.4,5.1
		c2.9,0,6.3-3.1,9.3-6.6l0,0l0,0c2-2.3,3.8-4.8,5.1-6.5c-1.4,3.7-0.7,10.3-4,10.3c-1.2,0-1.7-1.3-1.7-1.3l-2.2,1.2
		c0,0,0.7,2.9,3.9,2.9c0.3,0,0.6,0,1-0.1c0,0,0.1,0,0.1,0c1.9-0.2,3.7-1.1,5.5-2.4l-1.2,2.1h3.6l5.4-9.4c5.5-6.9,7.9-6,6.4-3.4
		l-4.6,8c-1.5,2.6-0.4,5.1,2.4,5.1c2.1,0,4.4-1.6,6.6-3.7c0,4.5,6.3,5.4,10.1,0.6h0.8c1.1,0,2.5-0.3,3.8-0.9l-6.5,11.2h3.6
		l10.6-18.5c4-5.4,6.5-3.4,5.5-1.8l-5.4,9.3c-0.6,1-1.9,1.3-2.6,0l-2,1c0,0,0.7,2.9,3.9,2.9h0.2c5.2-0.1,8.6-3.2,11.5-6.6
		C265.6,23.8,265,23.3,264.5,23.1z M183.5,18.1c2.1-3.5,5.7-2.9,3.6,0.8l-0.5,0.9c-1.7,2.9-4,2.8-5.3,2.4L183.5,18.1z M137.9,23.7
		c-2.2,3.4-4.3,5-5.7,5c-0.8,0-1.2-0.5-0.4-2l5-8.7c1.9-3.3,5.7-2.5,4,0.8L137.9,23.7z M164.6,28.6c-0.8,0-1.4-0.5-1.4-1.4
		c0-0.5,0.2-1.1,0.6-1.8l1.3-2.2c0.3,1.5,1,2.9,2.3,3.7C166.6,28,165.5,28.6,164.6,28.6z M168.4,25.1c-0.9-0.7-1.5-1.8-1.5-3.2
		c0-2.5,2.5-6.7,4.5-6.7c0.8,0,1.3,0.6,1.3,1.5c0,0.6-0.2,1.3-0.7,2.1L168.4,25.1z M241.4,23.4h-0.2c-1.2,0-2.1,1-2.1,2.1
		c0,0.4,0.1,0.9,0.3,1.2l0,0.1c-1.7,2.9-5.7,2.3-3.6-1.4l2.7-4.7l1.7-2.9c2.5-4.2,5.9-2.6,3.8,1.1L241.4,23.4z"/>
</g>
<rect x="6.9" y="73.4" transform="matrix(0.7072 -0.7071 0.7071 0.7072 -51.5432 30.4418)" class="st0" width="8.1" height="8.1"/>
<rect x="358.9" y="73.4" transform="matrix(0.7072 -0.7071 0.7071 0.7072 51.5356 279.3238)" class="st0" width="8.1" height="8.1"/>
<g>
	<polygon class="st1" points="52.1,77.6 54.1,77.6 54.1,69.3 57.4,69.3 57.4,67.2 52.1,67.2 	"/>
	<path class="st1" d="M67,79.2V66.5c0-1.8-1.1-3.3-2.6-4.1c0.3,0.6,0.5,1.3,0.5,2v12.7c0,1.4-0.6,2.6-1.7,3.5c0.9,1,1.7,2.1,1.7,3.7
		v14.1c0,2.5-2.1,4.6-4.6,4.6H46.8v2.1h15.6c2.5,0,4.6-2.1,4.6-4.6V86.4c0-1.6-0.7-2.7-1.7-3.7C66.3,81.8,67,80.6,67,79.2z"/>
	<polygon class="st1" points="52.1,95.5 54.1,95.5 54.1,87.1 57.4,87.1 57.4,85 52.1,85 	"/>
</g>
<g>
	<polygon class="st1" points="85.1,95.5 87.2,95.5 87.2,69.3 90.4,69.3 90.4,67.2 85.1,67.2 	"/>
	<path class="st1" d="M97.4,62.4c0.3,0.6,0.5,1.3,0.5,2v34c0,2.5-2.1,4.6-4.6,4.6H82.2c-0.7,0-1.4-0.2-2-0.5
		c0.7,1.5,2.3,2.6,4.1,2.6h11.1c2.5,0,4.6-2.1,4.6-4.6v-34C100,64.7,98.9,63.2,97.4,62.4z"/>
</g>
<g>
	<polygon class="st1" points="118.1,77.6 120.2,77.6 120.2,69.3 123.4,69.3 123.4,67.2 118.1,67.2 	"/>
	<path class="st1" d="M130.3,86.7c1.6-0.7,2.6-2.3,2.6-4.1V66.5c0-1.8-1.1-3.4-2.6-4.1c0.3,0.6,0.5,1.3,0.5,2v16.1
		c0,1.7-1,3.3-2.6,4.1l3.1,18.4h-5.7l0.4,2.1h7.4L130.3,86.7z"/>
	<polygon class="st1" points="120.9,85 118.1,85 118.1,103 112.8,103 112.8,105 120.2,105 120.2,87.1 121.3,87.1 	"/>
</g>
<g>
	<polygon class="st1" points="150.1,95.5 152.2,95.5 152.2,69.3 155.5,69.3 155.5,67.2 150.1,67.2 	"/>
	<path class="st1" d="M162.4,62.4c0.3,0.6,0.5,1.3,0.5,2v34c0,2.5-2.1,4.6-4.6,4.6h-11.1c-0.7,0-1.4-0.2-2-0.5
		c0.7,1.5,2.3,2.6,4.1,2.6h11.1c2.5,0,4.6-2.1,4.6-4.6v-34C165,64.7,163.9,63.2,162.4,62.4z"/>
</g>
<g>
	<polygon class="st1" points="183.1,95.5 185.2,95.5 185.2,69.3 188.5,69.3 188.5,67.2 183.1,67.2 	"/>
	<path class="st1" d="M195.4,62.4c0.3,0.6,0.5,1.3,0.5,2v34c0,2.5-2.1,4.6-4.6,4.6h-13.6v2.1h15.6c2.5,0,4.6-2.1,4.6-4.6v-34
		C198,64.7,196.9,63.2,195.4,62.4z"/>
</g>
<polygon class="st1" points="216.5,61.9 216.5,103 211.2,103 211.2,105 218.6,105 218.6,61.9 "/>
<g>
	<polygon class="st1" points="249.4,61.9 249.4,103 243.5,103 244.1,105 251.5,105 251.5,61.9 	"/>
	<polygon class="st1" points="236.6,84.1 236.6,103 231.3,103 231.3,105 238.7,105 238.7,91.4 	"/>
</g>
<g>
	<path class="st1" d="M268.8,87.1h6.1V85h-8.2c-0.7,0-1.4-0.2-2-0.5C265.5,86.1,267,87.1,268.8,87.1z"/>
	<polygon class="st1" points="271.7,89.9 269.6,90.4 269.6,95.5 271.7,95.5 	"/>
	<path class="st1" d="M281.9,62.4c0.3,0.6,0.5,1.3,0.5,2v8.7l-5.4,1.2V77l7.5-1.7v-8.7C284.5,64.7,283.4,63.2,281.9,62.4z"/>
	<path class="st1" d="M281.9,80.2c0.3,0.6,0.5,1.3,0.5,2v16.2c0,2.5-2.1,4.6-4.6,4.6h-11.1c-0.7,0-1.4-0.2-2-0.5
		c0.7,1.5,2.3,2.6,4.1,2.6h11.1c2.5,0,4.6-2.1,4.6-4.6V84.3C284.5,82.5,283.4,81,281.9,80.2z"/>
	<polygon class="st1" points="269.6,67.2 269.6,77.6 271.7,77.6 271.7,69.3 274.9,69.3 274.9,67.2 	"/>
</g>
<g>
	<polygon class="st1" points="303.3,85 302.6,85 302.6,103 297.3,103 297.3,105 304.7,105 304.7,89.5 	"/>
	<polygon class="st1" points="318.4,61.9 315.7,61.9 309.4,81.3 316.3,103 310.3,103 310.9,104.8 311,105 318.4,105 311.5,83.4 	"/>
</g>
<polygon class="st1" points="335.8,61.9 335.8,103 330.5,103 330.5,105 337.9,105 337.9,61.9 "/>
<g id="UUIVGv.tif">
	<g>
		<path class="st2" d="M173.2,128c0.5,0,0.9,0,1.4,0c5.4,0.3,9.7,1.7,12.4,4.7c2.7-3,7-4.5,12.5-4.7c0.5,0,0.9,0,1.3,0
			c12.1,0.8,17.6,9.5,27.3,13.2c1.4,0.5,3.2,1.2,4.8,1c2.5-0.3,4.1-2.8,3.7-5.6c-0.3-3-3.3-5.6-6.6-4.2c-0.5,0.2-0.8,0.5-1.2,0.8
			c-0.3,0.2-0.5,0.8-1.2,0.6c-0.6-0.5,0-1.2,0.3-1.7c1.1-1.9,2.9-3.2,6.1-3c5.6,0.4,10.7,5.3,9.8,12.8
			c-1.9,11.2-12.1,14.1-24.2,15.2c-1.3,0-2.6,0-3.9,0c-12.5-0.7-21.4-5.1-28.8-11c-7.5,5.8-16.3,10.3-28.9,11c-1.3,0-2.6,0-3.9,0
			c-12.2-1.1-22.4-4-24.2-15.5c-0.7-8.2,4.2-12.2,9.8-12.6c3.1-0.2,5,1.1,6.1,3c0.3,0.5,0.8,1.2,0.3,1.7c-0.6,0.1-0.9-0.4-1.2-0.6
			c-0.7-0.7-1.5-1.2-2.8-1.2c-3.9-0.1-6.1,4.2-4.5,7.6c0.5,1.2,1.8,2.4,3.4,2.5c1.6,0.2,3.4-0.5,4.8-1c1.5-0.5,2.7-1.2,3.9-1.9
			C157.2,135,162.9,128.9,173.2,128z"/>
	</g>
</g>
<rect x="366.8" y="83.8" transform="matrix(0.7071 -0.7071 0.7071 0.7071 48.307 287.2239)" class="st1" width="8.1" height="2.9"/>
<rect x="14.8" y="83.8" transform="matrix(0.7071 -0.7071 0.7071 0.7071 -54.8003 38.3029)" class="st1" width="8.1" height="2.9"/>
<g>
	<path class="st0" d="M60.9,73.1c0,1.4-0.6,2.6-1.7,3.5c0.9,1,1.7,2.1,1.7,3.7v14.1c0,2.5-2.1,4.6-4.6,4.6H40.7V55.9h15.6
		c2.5,0,4.6,2,4.6,4.6V73.1z M53.5,63.3h-5.4v10.4h5.4V63.3z M53.5,81.1h-5.4v10.5h5.4V81.1z"/>
	<path class="st0" d="M89.4,55.9c2.5,0,4.6,2,4.6,4.6v34c0,2.5-2.1,4.6-4.6,4.6H78.3c-2.5,0-4.6-2.1-4.6-4.6v-34
		c0-2.5,2-4.6,4.6-4.6H89.4z M86.5,63.3h-5.4v28.3h5.4V63.3z"/>
	<path class="st0" d="M120,99l-3-17.9h-2.8V99h-7.4V55.9h15.6c2.5,0,4.5,2,4.5,4.6v16.1c0,1.7-1,3.3-2.6,4.1l3.1,18.4H120z
		 M119.5,63.3h-5.4v10.4h5.4V63.3z"/>
	<path class="st0" d="M154.4,55.9c2.5,0,4.6,2,4.6,4.6v34c0,2.5-2.1,4.6-4.6,4.6h-11.1c-2.5,0-4.6-2.1-4.6-4.6v-34
		c0-2.5,2-4.6,4.6-4.6H154.4z M151.5,63.3h-5.4v28.3h5.4V63.3z"/>
	<path class="st0" d="M187.4,55.9c2.5,0,4.6,2,4.6,4.6v34c0,2.5-2.1,4.6-4.6,4.6h-15.6V55.9H187.4z M184.5,63.3h-5.4v28.3h5.4V63.3z
		"/>
	<path class="st0" d="M205.2,55.9h7.4V99h-7.4V55.9z"/>
	<path class="st0" d="M245.4,55.9V99H238l-5.4-18.8V99h-7.4V55.9h7.3l5.4,17.7V55.9H245.4z"/>
	<path class="st0" d="M273.9,73.7c2.5,0,4.6,2,4.6,4.6v16.2c0,2.5-2.1,4.6-4.6,4.6h-11.1c-2.5,0-4.6-2.1-4.6-4.6v-8.9l7.4-1.7v7.7
		h5.4V81.1h-8.2c-2.5,0-4.6-2-4.6-4.6V60.4c0-2.5,2-4.6,4.6-4.6h11.1c2.5,0,4.6,2,4.6,4.6v8.7l-7.5,1.7v-7.6h-5.4v10.4H273.9z"/>
	<path class="st0" d="M305.5,77.4l6.9,21.6h-7.5l-0.1-0.2l-5.5-17.7h-0.7V99h-7.4V55.9h7.4v17.8h0.6l5.7-17.8h7.5L305.5,77.4z"/>
	<path class="st0" d="M324.4,55.9h7.4V99h-7.4V55.9z"/>
</g>
</symbol><symbol id="logo_m" viewBox="0 0 225.8 30">
<style type="text/css">
	.st0{fill:#FFFFFF;}
	.st1{fill:#636466;}
</style>
<g>
	<rect x="1" y="10.7" transform="matrix(0.7072 -0.7071 0.7071 0.7072 -8.2908 6.3276)" class="st0" width="4.9" height="4.9"/>
	
		<rect x="216.1" y="10.7" transform="matrix(0.7071 -0.7071 0.7071 0.7071 54.7086 158.446)" class="st0" width="4.9" height="4.9"/>
	<g>
		<polygon class="st1" points="28.6,13.3 29.9,13.3 29.9,8.2 31.9,8.2 31.9,6.9 28.6,6.9 		"/>
		<path class="st1" d="M37.7,14.2V6.5c0-1.1-0.7-2-1.6-2.5c0.2,0.4,0.3,0.8,0.3,1.2V13c0,0.9-0.4,1.6-1,2.1c0.6,0.6,1,1.3,1,2.3V26
			c0,1.5-1.3,2.8-2.8,2.8h-8.3V30h9.6c1.5,0,2.8-1.3,2.8-2.8v-8.6c0-1-0.5-1.7-1-2.3C37.3,15.9,37.7,15.1,37.7,14.2z"/>
		<polygon class="st1" points="28.6,24.2 29.9,24.2 29.9,19.1 31.9,19.1 31.9,17.8 28.6,17.8 		"/>
	</g>
	<g>
		<polygon class="st1" points="48.8,24.2 50.1,24.2 50.1,8.2 52.1,8.2 52.1,6.9 48.8,6.9 		"/>
		<path class="st1" d="M56.3,4c0.2,0.4,0.3,0.8,0.3,1.2V26c0,1.5-1.3,2.8-2.8,2.8H47c-0.4,0-0.8-0.1-1.2-0.3
			c0.5,0.9,1.4,1.6,2.5,1.6h6.8c1.5,0,2.8-1.3,2.8-2.8V6.5C57.9,5.4,57.2,4.4,56.3,4z"/>
	</g>
	<g>
		<polygon class="st1" points="69,13.3 70.2,13.3 70.2,8.2 72.2,8.2 72.2,6.9 69,6.9 		"/>
		<path class="st1" d="M76.4,18.8c1-0.5,1.6-1.4,1.6-2.5V6.5c0-1.1-0.6-2.1-1.6-2.5c0.2,0.4,0.3,0.8,0.3,1.2v9.9
			c0,1.1-0.6,2-1.6,2.5L77,28.8h-3.5l0.2,1.3h4.5L76.4,18.8z"/>
		<polygon class="st1" points="70.7,17.8 69,17.8 69,28.8 65.7,28.8 65.7,30 70.2,30 70.2,19.1 70.9,19.1 		"/>
	</g>
	<g>
		<polygon class="st1" points="88.5,24.2 89.8,24.2 89.8,8.2 91.8,8.2 91.8,6.9 88.5,6.9 		"/>
		<path class="st1" d="M96.1,4c0.2,0.4,0.3,0.8,0.3,1.2V26c0,1.5-1.3,2.8-2.8,2.8h-6.8c-0.4,0-0.8-0.1-1.2-0.3
			C86,29.4,87,30,88.1,30h6.8c1.5,0,2.8-1.3,2.8-2.8V6.5C97.6,5.4,97,4.4,96.1,4z"/>
	</g>
	<g>
		<polygon class="st1" points="108.7,24.2 110,24.2 110,8.2 112,8.2 112,6.9 108.7,6.9 		"/>
		<path class="st1" d="M116.2,4c0.2,0.4,0.3,0.8,0.3,1.2V26c0,1.5-1.3,2.8-2.8,2.8h-8.3V30h9.6c1.5,0,2.8-1.3,2.8-2.8V6.5
			C117.8,5.4,117.2,4.4,116.2,4z"/>
	</g>
	<polygon class="st1" points="129.1,3.7 129.1,28.8 125.9,28.8 125.9,30 130.4,30 130.4,3.7 	"/>
	<g>
		<polygon class="st1" points="149.2,3.7 149.2,28.8 145.6,28.8 146,30 150.5,30 150.5,3.7 		"/>
		<polygon class="st1" points="141.4,17.2 141.4,28.8 138.1,28.8 138.1,30 142.6,30 142.6,21.7 		"/>
	</g>
	<g>
		<path class="st1" d="M161.1,19.1h3.7v-1.3h-5c-0.4,0-0.9-0.1-1.2-0.3C159.1,18.4,160,19.1,161.1,19.1z"/>
		<polygon class="st1" points="162.8,20.8 161.6,21.1 161.6,24.2 162.8,24.2 		"/>
		<path class="st1" d="M169.1,4c0.2,0.4,0.3,0.8,0.3,1.2v5.3l-3.3,0.8v1.6l4.6-1.1V6.5C170.7,5.4,170,4.4,169.1,4z"/>
		<path class="st1" d="M169.1,14.9c0.2,0.4,0.3,0.8,0.3,1.2V26c0,1.5-1.3,2.8-2.8,2.8h-6.8c-0.4,0-0.8-0.1-1.2-0.3
			c0.5,0.9,1.4,1.6,2.5,1.6h6.8c1.5,0,2.8-1.3,2.8-2.8v-9.9C170.7,16.3,170,15.3,169.1,14.9z"/>
		<polygon class="st1" points="161.6,6.9 161.6,13.3 162.8,13.3 162.8,8.2 164.8,8.2 164.8,6.9 		"/>
	</g>
	<g>
		<polygon class="st1" points="182.1,17.8 181.7,17.8 181.7,28.8 178.5,28.8 178.5,30 183,30 183,20.6 		"/>
		<polygon class="st1" points="191.4,3.7 189.7,3.7 185.9,15.6 190.1,28.8 186.5,28.8 186.8,29.9 186.8,30 191.4,30 187.2,16.8 		
			"/>
	</g>
	<polygon class="st1" points="202,3.7 202,28.8 198.8,28.8 198.8,30 203.3,30 203.3,3.7 	"/>
	<rect x="221" y="17.1" transform="matrix(0.707 -0.7072 0.7072 0.707 52.7518 163.2809)" class="st1" width="4.9" height="1.8"/>
	<rect x="5.8" y="17.1" transform="matrix(0.7071 -0.7071 0.7071 0.7071 -10.2805 11.1326)" class="st1" width="4.9" height="1.8"/>
	<g>
		<path class="st0" d="M34,10.5c0,0.9-0.4,1.6-1,2.1c0.6,0.6,1,1.3,1,2.3v8.6c0,1.5-1.3,2.8-2.8,2.8h-9.6V0h9.6
			C32.7,0,34,1.2,34,2.8V10.5z M29.5,4.5h-3.3v6.4h3.3V4.5z M29.5,15.4h-3.3v6.4h3.3V15.4z"/>
		<path class="st0" d="M51.4,0c1.5,0,2.8,1.2,2.8,2.8v20.8c0,1.5-1.3,2.8-2.8,2.8h-6.8c-1.5,0-2.8-1.3-2.8-2.8V2.8
			c0-1.5,1.2-2.8,2.8-2.8H51.4z M49.6,4.5h-3.3v17.3h3.3V4.5z"/>
		<path class="st0" d="M70.1,26.3l-1.8-11h-1.7v11H62V0h9.6c1.5,0,2.7,1.2,2.7,2.8v9.9c0,1.1-0.6,2-1.6,2.5l1.9,11.2H70.1z
			 M69.8,4.5h-3.3v6.4h3.3V4.5z"/>
		<path class="st0" d="M91.2,0c1.5,0,2.8,1.2,2.8,2.8v20.8c0,1.5-1.3,2.8-2.8,2.8h-6.8c-1.5,0-2.8-1.3-2.8-2.8V2.8
			c0-1.5,1.2-2.8,2.8-2.8H91.2z M89.4,4.5h-3.3v17.3h3.3V4.5z"/>
		<path class="st0" d="M111.3,0c1.5,0,2.8,1.2,2.8,2.8v20.8c0,1.5-1.3,2.8-2.8,2.8h-9.6V0H111.3z M109.6,4.5h-3.3v17.3h3.3V4.5z"/>
		<path class="st0" d="M122.2,0h4.5v26.3h-4.5V0z"/>
		<path class="st0" d="M146.8,0v26.3h-4.5L139,14.8v11.5h-4.5V0h4.5l3.3,10.8V0H146.8z"/>
		<path class="st0" d="M164.2,10.9c1.5,0,2.8,1.2,2.8,2.8v9.9c0,1.5-1.3,2.8-2.8,2.8h-6.8c-1.5,0-2.8-1.3-2.8-2.8v-5.4l4.5-1.1v4.7
			h3.3v-6.4h-5c-1.5,0-2.8-1.2-2.8-2.8V2.8c0-1.5,1.2-2.8,2.8-2.8h6.8c1.5,0,2.8,1.2,2.8,2.8v5.3l-4.6,1.1V4.5h-3.3v6.4H164.2z"/>
		<path class="st0" d="M183.5,13.1l4.2,13.2h-4.6l0-0.2l-3.4-10.8h-0.4v11h-4.5V0h4.5v10.9h0.3L183.1,0h4.6L183.5,13.1z"/>
		<path class="st0" d="M195.1,0h4.5v26.3h-4.5V0z"/>
	</g>
</g>
</symbol><symbol id="logo_t" viewBox="0 0 320 100.3">
<style type="text/css">
	.st0{fill:#FFFFFF;}
	.st1{fill:#3F3F3F;}
</style>
<g>
	<path class="st0" d="M104.6,9.6c7.2-2.4,7.7-11.4,0.7-11.4c-1.9,0-4.3,1.4-5.9,4.2L89.8,19c-0.4,0.8-0.9,1.4-1.4,2
		c-2.5-3.4-1.7-8.5,1.7-10.7l-1.4-1.8C81.2,13.2,83.4,27,95.8,27C106.5,27,111.4,14.2,104.6,9.6z M95.8,24.2c-2.1,0-3.8-0.5-5.1-1.2
		c0.6-0.7,1.2-1.6,1.8-2.5l6-10.4l1,0.1C107.7,11.9,104.4,24.2,95.8,24.2z M99.6,8l2.9-4.9c2.6-4.5,5.9-1.8,4.1,1.5
		C105.2,7.2,103.2,7.9,99.6,8z"/>
	<path class="st0" d="M243.9,17.2l-0.2,0.3c-2,2.3-4.3,4.2-6.5,5c0.6-0.9,1-1.9,1.5-2.7l3.9-6.7c3.3-5.6-2.1-7.5-5.7-4.3l0.7-1.2
		h-3.6l-5.6,9.7c0,0,0,0,0,0l-0.2,0.3c-1.6,1.7-3.6,2.6-5.4,2.6l3.4-5.8c2.2-3.7,0.2-7.3-3.2-7.3c-2.7,0-4.9,1.1-6.9,4.7l-1.7,3
		l-1.5,2.5l-0.2,0.2c-2.6,3-5.1,5.3-6.6,5.3c-0.8,0-1.2-0.5-0.4-2l5.1-9c1.5-2.7,0.1-4.7-1.9-4.7c-1.5,0-3.2,0.9-5,2.7l5.7-9.9h-3.6
		l-9.9,17.2l-0.2,0.2c-1.3,1.5-2.9,2.9-4.3,3.9c1.1-3.4,0.9-8.6,3.1-13.1l-2.7-1.4c-1.5,2-4.7,6.7-7.9,10.4c0,0,0,0,0,0s0,0,0,0
		l-0.2,0.3c-2.6,3-5.1,5.3-6.6,5.3c-0.8,0-1.2-0.5-0.4-2l3.6-6.2c1.2-2.2,0.6-3.4-0.5-4.8l-2-2.4c-0.5-0.7-0.5-1.4,0.2-2.1l-1.8-2
		c-2,1.8-2.2,3.8-0.9,5.5l0.3,0.4c-1.6,2.2-3.7,5.2-6,8l-0.2,0.3c-2.6,3-5.9,5.3-8.3,5.3c-2.2,0-3.5-1.4-1.8-4.2l0.3-0.6
		c2.3,1,6.6,0.5,9.3-4.1l0.5-0.9c1.9-3.3,0.1-5.7-2.8-5.7c-2.9,0-5.2,1.5-6.7,4.1l-3.4,5.9l-0.2,0.2c-1.6,1.8-3.6,2.6-5.4,2.6
		l3.4-5.8c0.9-1.6,1.3-2.9,1.3-4.1c0-1.8-1.2-3.2-3.2-3.2c-0.9,0-1.6,0.3-2.3,0.8l4.5-7.8h-3.6l-10,17.2l-0.2,0.2
		c-2.6,3-5.1,5.3-6.6,5.3c-0.8,0-1.2-0.5-0.4-2l3.6-6.2c1.2-2.2,0.6-3.4-0.5-4.8l-2-2.4c-0.5-0.7-0.5-1.4,0.2-2.1l-1.8-2
		c-2,1.8-2.2,3.8-0.9,5.5l0.3,0.4c-1.6,2.2-3.7,5.2-6,8l-0.2,0.3c-2.6,3-5.1,5.3-6.6,5.3c-0.8,0-1.2-0.5-0.4-2l5.7-10.1h-2
		c0.1-1.5-1.4-3.6-3.7-3.6c-1.9,0-4.6,1.5-6.1,4.1l-5,8.6c-1.5,2.6-0.4,5.1,2.4,5.1c1.4,0,3.2-0.9,4.9-2.3c0.2,1.4,1.3,2.3,3.1,2.3
		c2.9,0,6.3-3.1,9.3-6.6l0,0c1.7-2,3-3.8,5.9-7.6l0.5,0.6c0.4,0.6,0.6,1.3,0.2,2l-3.8,6.5c-1.5,2.6-0.4,5.1,2.4,5.1
		c2.1,0,4.3-1.5,6.5-3.7c0,0,0,0,0,0c0,2.4,1.8,3.8,4.1,3.8c2,0,4.3-1,6.1-3.3c0.3,0,0.5,0,0.8,0c1.3,0,3.1-0.5,4.7-1.4
		C155,23,156.9,25,160,25c4,0,8-3.1,11-6.6c1.7-2,3-3.8,5.9-7.6l0.5,0.6c0.4,0.6,0.6,1.3,0.2,2l-3.8,6.5c-1.5,2.6-0.4,5.1,2.4,5.1
		c2.9,0,6.3-3.1,9.3-6.6l0,0l0,0c2-2.3,3.8-4.8,5.1-6.5c-1.4,3.7-0.7,10.3-4,10.3c-1.2,0-1.7-1.3-1.7-1.3l-2.2,1.2
		c0,0,0.7,2.9,3.9,2.9c0.3,0,0.6,0,1-0.1c0,0,0.1,0,0.1,0c1.9-0.2,3.7-1.1,5.5-2.4l-1.2,2.1h3.6l5.4-9.4c5.5-6.9,7.9-6,6.4-3.4
		l-4.6,8c-1.5,2.6-0.4,5.1,2.4,5.1c2.1,0,4.4-1.6,6.6-3.7c0,4.5,6.3,5.4,10.1,0.6h0.8c1.1,0,2.5-0.3,3.8-0.9l-6.5,11.2h3.6
		l10.6-18.5c4-5.4,6.5-3.4,5.5-1.8l-5.4,9.3c-0.6,1-1.9,1.3-2.6,0l-2,1c0,0,0.7,2.9,3.9,2.9h0.2c5.2-0.1,8.6-3.2,11.5-6.6
		C245,17.9,244.4,17.3,243.9,17.2z M162.9,12.2c2.1-3.5,5.7-2.9,3.6,0.8l-0.5,0.9c-1.7,2.9-4,2.8-5.3,2.4L162.9,12.2z M117.3,17.8
		c-2.2,3.4-4.3,5-5.7,5c-0.8,0-1.2-0.5-0.4-2l5-8.7c1.9-3.3,5.7-2.5,4,0.8L117.3,17.8z M144.1,22.6c-0.8,0-1.4-0.5-1.4-1.4
		c0-0.5,0.2-1.1,0.6-1.8l1.3-2.2c0.3,1.5,1,2.9,2.3,3.7C146.1,22.1,145,22.6,144.1,22.6z M147.8,19.2c-0.9-0.7-1.5-1.8-1.5-3.2
		c0-2.5,2.5-6.7,4.5-6.7c0.8,0,1.3,0.6,1.3,1.5c0,0.6-0.2,1.3-0.7,2.1L147.8,19.2z M220.9,17.4h-0.2c-1.2,0-2.1,1-2.1,2.1
		c0,0.4,0.1,0.9,0.3,1.2l0,0.1c-1.7,2.9-5.7,2.3-3.6-1.4l2.7-4.7l1.7-2.9c2.5-4.2,5.9-2.6,3.8,1.1L220.9,17.4z"/>
</g>
<rect x="-13.6" y="84.5" transform="matrix(0.7072 -0.7071 0.7071 0.7072 -65.3787 19.143)" class="st0" width="8.1" height="8.1"/>
<rect x="338.4" y="84.5" transform="matrix(0.7072 -0.7071 0.7071 0.7072 37.7002 268.025)" class="st0" width="8.1" height="8.1"/>
<g>
	<polygon class="st1" points="31.5,71.7 33.6,71.7 33.6,63.4 36.9,63.4 36.9,61.3 31.5,61.3 	"/>
	<path class="st1" d="M46.4,73.2V60.5c0-1.8-1.1-3.3-2.6-4.1c0.3,0.6,0.5,1.3,0.5,2v12.7c0,1.4-0.6,2.6-1.7,3.5
		c0.9,1,1.7,2.1,1.7,3.7v14.1c0,2.5-2.1,4.6-4.6,4.6H26.2v2.1h15.6c2.5,0,4.6-2.1,4.6-4.6V80.4c0-1.6-0.7-2.7-1.7-3.7
		C45.8,75.9,46.4,74.6,46.4,73.2z"/>
	<polygon class="st1" points="31.5,89.6 33.6,89.6 33.6,81.2 36.9,81.2 36.9,79.1 31.5,79.1 	"/>
</g>
<g>
	<polygon class="st1" points="64.5,89.6 66.6,89.6 66.6,63.4 69.9,63.4 69.9,61.3 64.5,61.3 	"/>
	<path class="st1" d="M76.8,56.5c0.3,0.6,0.5,1.3,0.5,2v34c0,2.5-2.1,4.6-4.6,4.6H61.7c-0.7,0-1.4-0.2-2-0.5
		c0.7,1.5,2.3,2.6,4.1,2.6h11.1c2.5,0,4.6-2.1,4.6-4.6v-34C79.4,58.8,78.3,57.2,76.8,56.5z"/>
</g>
<g>
	<polygon class="st1" points="97.5,71.7 99.6,71.7 99.6,63.4 102.9,63.4 102.9,61.3 97.5,61.3 	"/>
	<path class="st1" d="M109.8,80.7c1.6-0.7,2.6-2.3,2.6-4.1V60.5c0-1.8-1.1-3.4-2.6-4.1c0.3,0.6,0.5,1.3,0.5,2v16.1
		c0,1.7-1,3.3-2.6,4.1l3.1,18.4h-5.7l0.4,2.1h7.4L109.8,80.7z"/>
	<polygon class="st1" points="100.4,79.1 97.5,79.1 97.5,97 92.2,97 92.2,99.1 99.6,99.1 99.6,81.2 100.7,81.2 	"/>
</g>
<g>
	<polygon class="st1" points="129.6,89.6 131.6,89.6 131.6,63.4 134.9,63.4 134.9,61.3 129.6,61.3 	"/>
	<path class="st1" d="M141.9,56.5c0.3,0.6,0.5,1.3,0.5,2v34c0,2.5-2.1,4.6-4.6,4.6h-11.1c-0.7,0-1.4-0.2-2-0.5
		c0.7,1.5,2.3,2.6,4.1,2.6h11.1c2.5,0,4.6-2.1,4.6-4.6v-34C144.4,58.8,143.4,57.2,141.9,56.5z"/>
</g>
<g>
	<polygon class="st1" points="162.6,89.6 164.6,89.6 164.6,63.4 167.9,63.4 167.9,61.3 162.6,61.3 	"/>
	<path class="st1" d="M174.9,56.5c0.3,0.6,0.5,1.3,0.5,2v34c0,2.5-2.1,4.6-4.6,4.6h-13.6v2.1h15.6c2.5,0,4.6-2.1,4.6-4.6v-34
		C177.5,58.8,176.4,57.2,174.9,56.5z"/>
</g>
<polygon class="st1" points="195.9,56 195.9,97 190.6,97 190.6,99.1 198,99.1 198,56 "/>
<g>
	<polygon class="st1" points="228.8,56 228.8,97 222.9,97 223.5,99.1 230.9,99.1 230.9,56 	"/>
	<polygon class="st1" points="216,78.2 216,97 210.7,97 210.7,99.1 218.1,99.1 218.1,85.4 	"/>
</g>
<g>
	<path class="st1" d="M248.3,81.2h6.1v-2.1h-8.2c-0.7,0-1.4-0.2-2-0.5C244.9,80.1,246.5,81.2,248.3,81.2z"/>
	<polygon class="st1" points="251.1,83.9 249,84.4 249,89.6 251.1,89.6 	"/>
	<path class="st1" d="M261.4,56.5c0.3,0.6,0.5,1.3,0.5,2v8.7l-5.4,1.2V71l7.5-1.7v-8.7C263.9,58.8,262.9,57.2,261.4,56.5z"/>
	<path class="st1" d="M261.4,74.3c0.3,0.6,0.5,1.3,0.5,2v16.2c0,2.5-2.1,4.6-4.6,4.6h-11.1c-0.7,0-1.4-0.2-2-0.5
		c0.7,1.5,2.3,2.6,4.1,2.6h11.1c2.5,0,4.6-2.1,4.6-4.6V78.3C263.9,76.5,262.9,75,261.4,74.3z"/>
	<polygon class="st1" points="249,61.3 249,71.7 251.1,71.7 251.1,63.4 254.4,63.4 254.4,61.3 	"/>
</g>
<g>
	<polygon class="st1" points="282.7,79.1 282,79.1 282,97 276.7,97 276.7,99.1 284.1,99.1 284.1,83.6 	"/>
	<polygon class="st1" points="297.9,56 295.1,56 288.9,75.4 295.8,97 289.8,97 290.3,98.8 290.4,99.1 297.9,99.1 291,77.5 	"/>
</g>
<polygon class="st1" points="315.2,56 315.2,97 309.9,97 309.9,99.1 317.3,99.1 317.3,56 "/>
<rect x="346.2" y="94.9" transform="matrix(0.7071 -0.7071 0.7071 0.7071 34.4686 275.9242)" class="st1" width="8.1" height="2.9"/>
<rect x="-5.8" y="77.9" transform="matrix(0.7071 -0.7071 0.7071 0.7071 -56.6163 22.0251)" class="st1" width="8.1" height="2.9"/>
<g>
	<path class="st0" d="M40.4,67.2c0,1.4-0.6,2.6-1.7,3.5c0.9,1,1.7,2.1,1.7,3.7v14.1c0,2.5-2.1,4.6-4.6,4.6H20.2V49.9h15.6
		c2.5,0,4.6,2,4.6,4.6V67.2z M32.9,57.3h-5.4v10.4h5.4V57.3z M32.9,75.1h-5.4v10.5h5.4V75.1z"/>
	<path class="st0" d="M68.8,49.9c2.5,0,4.6,2,4.6,4.6v34c0,2.5-2.1,4.6-4.6,4.6H57.7c-2.5,0-4.6-2.1-4.6-4.6v-34
		c0-2.5,2-4.6,4.6-4.6H68.8z M65.9,57.3h-5.4v28.3h5.4V57.3z"/>
	<path class="st0" d="M99.4,93.1l-3-17.9h-2.8v17.9h-7.4V49.9h15.6c2.5,0,4.5,2,4.5,4.6v16.1c0,1.7-1,3.3-2.6,4.1l3.1,18.4H99.4z
		 M98.9,57.3h-5.4v10.4h5.4V57.3z"/>
	<path class="st0" d="M133.8,49.9c2.5,0,4.6,2,4.6,4.6v34c0,2.5-2.1,4.6-4.6,4.6h-11.1c-2.5,0-4.6-2.1-4.6-4.6v-34
		c0-2.5,2-4.6,4.6-4.6H133.8z M131,57.3h-5.4v28.3h5.4V57.3z"/>
	<path class="st0" d="M166.9,49.9c2.5,0,4.6,2,4.6,4.6v34c0,2.5-2.1,4.6-4.6,4.6h-15.6V49.9H166.9z M164,57.3h-5.4v28.3h5.4V57.3z"/>
	<path class="st0" d="M184.6,49.9h7.4v43.1h-7.4V49.9z"/>
	<path class="st0" d="M224.9,49.9v43.1h-7.4l-5.4-18.8v18.8h-7.4V49.9h7.3l5.4,17.7V49.9H224.9z"/>
	<path class="st0" d="M253.3,67.7c2.5,0,4.6,2,4.6,4.6v16.2c0,2.5-2.1,4.6-4.6,4.6h-11.1c-2.5,0-4.6-2.1-4.6-4.6v-8.9l7.4-1.7v7.7
		h5.4V75.1h-8.2c-2.5,0-4.6-2-4.6-4.6V54.5c0-2.5,2-4.6,4.6-4.6h11.1c2.5,0,4.6,2,4.6,4.6v8.7l-7.5,1.7v-7.6h-5.4v10.4H253.3z"/>
	<path class="st0" d="M284.9,71.4l6.9,21.6h-7.5l-0.1-0.2l-5.5-17.7h-0.7v17.9h-7.4V49.9h7.4v17.8h0.6l5.7-17.8h7.5L284.9,71.4z"/>
	<path class="st0" d="M303.9,49.9h7.4v43.1h-7.4V49.9z"/>
</g>
</symbol><symbol id="sprite"><symbol viewBox="0 0 512 512" id="inst" xmlns="http://www.w3.org/2000/svg"><path d="M480 0H32C14.3 0 0 14.3 0 32v448c0 17.7 14.3 32 32 32h448c17.7 0 32-14.3 32-32V32c0-17.7-14.3-32-32-32zM192 256s5.1-64 64-64 64 64 64 64 1.8 64-64 64-64-64-64-64zm256 192H64V224h68.5c-2.7 10.3-4.5 20.9-4.5 32 0 70.7 57.3 128 128 128s128-57.3 128-128c0-11.1-1.9-21.7-4.5-32H448v224zm0-288h-96V64h96v96z"/></symbol><symbol viewBox="0 0 16 16" id="login" xmlns="http://www.w3.org/2000/svg"><path data-name="In (alt) copy 3" d="M16 1v14a1 1 0 0 1-1 1H8a1 1 0 1 1 0-2h6V2H8a1 1 0 0 1 0-2h7a1 1 0 0 1 1 1zM0 8a1 1 0 0 1 1-1h9a1 1 0 0 1 0 2H1a1 1 0 0 1-1-1zm9 1V7h2v2H9zm-2 3l4-4-4-4v8z" fill-rule="evenodd" opacity="1"/></symbol></symbol><symbol id="uzor" viewBox="0 0 320 34.1">
<style type="text/css">
	.st0{fill:#fff;}
</style>
<polygon class="st0" points="320,34.1 160,34.1 320,0 "/>
<polygon class="st0" points="0,34.1 160,34.1 0,0 "/>
</symbol></svg>