<?xml version="1.0" encoding="utf-8"?>
<!-- Generator: Adobe Illustrator 21.1.0, SVG Export Plug-In . SVG Version: 6.00 Build 0)  -->
<svg version="1.1" id="Layer_2" xmlns="http://www.w3.org/2000/svg" xmlns:xlink="http://www.w3.org/1999/xlink" x="0px" y="0px"
	 viewBox="0 0 369.4 106.5" style="enable-background:new 0 0 369.4 106.5;" xml:space="preserve">
<style type="text/css">
	.st0{fill:#FFFFFF;}
	.st1{fill:#3F3F3F;}
</style>
<g>
	<path class="st0" d="M119.8,13.6c7.2-2.4,7.7-11.4,0.7-11.4c-1.9,0-4.3,1.4-5.9,4.2L105,23c-0.4,0.8-0.9,1.4-1.4,2
		c-2.5-3.4-1.7-8.5,1.7-10.7l-1.4-1.8C96.4,17.2,98.6,31,111,31C121.7,31,126.6,18.2,119.8,13.6z M111,28.2c-2.1,0-3.8-0.5-5.1-1.2
		c0.6-0.7,1.2-1.6,1.8-2.5l6-10.4l1,0.1C122.9,15.9,119.6,28.2,111,28.2z M114.8,12l2.9-4.9c2.6-4.5,5.9-1.8,4.1,1.5
		C120.4,11.2,118.4,11.9,114.8,12z"/>
	<path class="st0" d="M259.1,21.2l-0.2,0.3c-2,2.3-4.3,4.2-6.5,5c0.6-0.9,1-1.9,1.5-2.7l3.9-6.7c3.3-5.6-2.1-7.5-5.7-4.3l0.7-1.2
		h-3.6l-5.6,9.7l0,0l-0.2,0.3c-1.6,1.7-3.6,2.6-5.4,2.6l3.4-5.8c2.2-3.7,0.2-7.3-3.2-7.3c-2.7,0-4.9,1.1-6.9,4.7l-1.7,3l-1.5,2.5
		l-0.2,0.2c-2.6,3-5.1,5.3-6.6,5.3c-0.8,0-1.2-0.5-0.4-2l5.1-9c1.5-2.7,0.1-4.7-1.9-4.7c-1.5,0-3.2,0.9-5,2.7l5.7-9.9h-3.6
		l-9.9,17.2l-0.2,0.2c-1.3,1.5-2.9,2.9-4.3,3.9c1.1-3.4,0.9-8.6,3.1-13.1l-2.7-1.4c-1.5,2-4.7,6.7-7.9,10.4l0,0l0,0l-0.2,0.3
		c-2.6,3-5.1,5.3-6.6,5.3c-0.8,0-1.2-0.5-0.4-2l3.6-6.2c1.2-2.2,0.6-3.4-0.5-4.8l-2-2.4c-0.5-0.7-0.5-1.4,0.2-2.1l-1.8-2
		c-2,1.8-2.2,3.8-0.9,5.5l0.3,0.4c-1.6,2.2-3.7,5.2-6,8l-0.2,0.3c-2.6,3-5.9,5.3-8.3,5.3c-2.2,0-3.5-1.4-1.8-4.2l0.3-0.6
		c2.3,1,6.6,0.5,9.3-4.1l0.5-0.9c1.9-3.3,0.1-5.7-2.8-5.7c-2.9,0-5.2,1.5-6.7,4.1l-3.4,5.9l-0.2,0.2c-1.6,1.8-3.6,2.6-5.4,2.6
		l3.4-5.8c0.9-1.6,1.3-2.9,1.3-4.1c0-1.8-1.2-3.2-3.2-3.2c-0.9,0-1.6,0.3-2.3,0.8l4.5-7.8h-3.6l-10,17.2l-0.2,0.2
		c-2.6,3-5.1,5.3-6.6,5.3c-0.8,0-1.2-0.5-0.4-2l3.6-6.2c1.2-2.2,0.6-3.4-0.5-4.8l-2-2.4c-0.5-0.7-0.5-1.4,0.2-2.1l-1.8-2
		c-2,1.8-2.2,3.8-0.9,5.5l0.3,0.4c-1.6,2.2-3.7,5.2-6,8l-0.2,0.3c-2.6,3-5.1,5.3-6.6,5.3c-0.8,0-1.2-0.5-0.4-2l5.7-10.1h-2
		c0.1-1.5-1.4-3.6-3.7-3.6c-1.9,0-4.6,1.5-6.1,4.1l-5,8.6c-1.5,2.6-0.4,5.1,2.4,5.1c1.4,0,3.2-0.9,4.9-2.3c0.2,1.4,1.3,2.3,3.1,2.3
		c2.9,0,6.3-3.1,9.3-6.6l0,0c1.7-2,3-3.8,5.9-7.6l0.5,0.6c0.4,0.6,0.6,1.3,0.2,2l-3.8,6.5c-1.5,2.6-0.4,5.1,2.4,5.1
		c2.1,0,4.3-1.5,6.5-3.7l0,0c0,2.4,1.8,3.8,4.1,3.8c2,0,4.3-1,6.1-3.3c0.3,0,0.5,0,0.8,0c1.3,0,3.1-0.5,4.7-1.4
		c-0.7,2.9,1.2,4.9,4.3,4.9c4,0,8-3.1,11-6.6c1.7-2,3-3.8,5.9-7.6l0.5,0.6c0.4,0.6,0.6,1.3,0.2,2l-3.8,6.5c-1.5,2.6-0.4,5.1,2.4,5.1
		c2.9,0,6.3-3.1,9.3-6.6l0,0l0,0c2-2.3,3.8-4.8,5.1-6.5c-1.4,3.7-0.7,10.3-4,10.3c-1.2,0-1.7-1.3-1.7-1.3l-2.2,1.2
		c0,0,0.7,2.9,3.9,2.9c0.3,0,0.6,0,1-0.1h0.1c1.9-0.2,3.7-1.1,5.5-2.4l-1.2,2.1h3.6l5.4-9.4c5.5-6.9,7.9-6,6.4-3.4l-4.6,8
		c-1.5,2.6-0.4,5.1,2.4,5.1c2.1,0,4.4-1.6,6.6-3.7c0,4.5,6.3,5.4,10.1,0.6h0.8c1.1,0,2.5-0.3,3.8-0.9l-6.5,11.2h3.6l10.6-18.5
		c4-5.4,6.5-3.4,5.5-1.8l-5.4,9.3c-0.6,1-1.9,1.3-2.6,0l-2,1c0,0,0.7,2.9,3.9,2.9h0.2c5.2-0.1,8.6-3.2,11.5-6.6
		C260.2,21.9,259.6,21.3,259.1,21.2z M178.1,16.2c2.1-3.5,5.7-2.9,3.6,0.8l-0.5,0.9c-1.7,2.9-4,2.8-5.3,2.4L178.1,16.2z M132.5,21.8
		c-2.2,3.4-4.3,5-5.7,5c-0.8,0-1.2-0.5-0.4-2l5-8.7c1.9-3.3,5.7-2.5,4,0.8L132.5,21.8z M159.3,26.6c-0.8,0-1.4-0.5-1.4-1.4
		c0-0.5,0.2-1.1,0.6-1.8l1.3-2.2c0.3,1.5,1,2.9,2.3,3.7C161.3,26.1,160.2,26.6,159.3,26.6z M163,23.2c-0.9-0.7-1.5-1.8-1.5-3.2
		c0-2.5,2.5-6.7,4.5-6.7c0.8,0,1.3,0.6,1.3,1.5c0,0.6-0.2,1.3-0.7,2.1L163,23.2z M236.1,21.4h-0.2c-1.2,0-2.1,1-2.1,2.1
		c0,0.4,0.1,0.9,0.3,1.2v0.1c-1.7,2.9-5.7,2.3-3.6-1.4l2.7-4.7l1.7-2.9c2.5-4.2,5.9-2.6,3.8,1.1L236.1,21.4z"/>
</g>
<rect x="1.7" y="88.5" transform="matrix(0.7072 -0.7071 0.7071 0.7072 -63.7384 31.1433)" class="st0" width="8.1" height="8.1"/>
<rect x="353.7" y="88.5" transform="matrix(0.7072 -0.7071 0.7071 0.7072 39.3585 280.0317)" class="st0" width="8.1" height="8.1"/>
<g>
	<polygon class="st1" points="46.7,75.7 48.8,75.7 48.8,67.4 52.1,67.4 52.1,65.3 46.7,65.3 	"/>
	<path class="st1" d="M61.6,77.2V64.5c0-1.8-1.1-3.3-2.6-4.1c0.3,0.6,0.5,1.3,0.5,2v12.7c0,1.4-0.6,2.6-1.7,3.5
		c0.9,1,1.7,2.1,1.7,3.7v14.1c0,2.5-2.1,4.6-4.6,4.6H41.4v2.1H57c2.5,0,4.6-2.1,4.6-4.6V84.4c0-1.6-0.7-2.7-1.7-3.7
		C61,79.9,61.6,78.6,61.6,77.2z"/>
	<polygon class="st1" points="46.7,93.6 48.8,93.6 48.8,85.2 52.1,85.2 52.1,83.1 46.7,83.1 	"/>
</g>
<g>
	<polygon class="st1" points="79.7,93.6 81.8,93.6 81.8,67.4 85.1,67.4 85.1,65.3 79.7,65.3 	"/>
	<path class="st1" d="M92,60.5c0.3,0.6,0.5,1.3,0.5,2v34c0,2.5-2.1,4.6-4.6,4.6h-11c-0.7,0-1.4-0.2-2-0.5c0.7,1.5,2.3,2.6,4.1,2.6
		h11.1c2.5,0,4.6-2.1,4.6-4.6v-34C94.6,62.8,93.5,61.2,92,60.5z"/>
</g>
<g>
	<polygon class="st1" points="112.7,75.7 114.8,75.7 114.8,67.4 118.1,67.4 118.1,65.3 112.7,65.3 	"/>
	<path class="st1" d="M125,84.7c1.6-0.7,2.6-2.3,2.6-4.1V64.5c0-1.8-1.1-3.4-2.6-4.1c0.3,0.6,0.5,1.3,0.5,2v16.1
		c0,1.7-1,3.3-2.6,4.1L126,101h-5.7l0.4,2.1h7.4L125,84.7z"/>
	<polygon class="st1" points="115.6,83.1 112.7,83.1 112.7,101 107.4,101 107.4,103.1 114.8,103.1 114.8,85.2 115.9,85.2 	"/>
</g>
<g>
	<polygon class="st1" points="144.8,93.6 146.8,93.6 146.8,67.4 150.1,67.4 150.1,65.3 144.8,65.3 	"/>
	<path class="st1" d="M157.1,60.5c0.3,0.6,0.5,1.3,0.5,2v34c0,2.5-2.1,4.6-4.6,4.6h-11.1c-0.7,0-1.4-0.2-2-0.5
		c0.7,1.5,2.3,2.6,4.1,2.6h11.1c2.5,0,4.6-2.1,4.6-4.6v-34C159.6,62.8,158.6,61.2,157.1,60.5z"/>
</g>
<g>
	<polygon class="st1" points="177.8,93.6 179.8,93.6 179.8,67.4 183.1,67.4 183.1,65.3 177.8,65.3 	"/>
	<path class="st1" d="M190.1,60.5c0.3,0.6,0.5,1.3,0.5,2v34c0,2.5-2.1,4.6-4.6,4.6h-13.6v2.1H188c2.5,0,4.6-2.1,4.6-4.6v-34
		C192.7,62.8,191.6,61.2,190.1,60.5z"/>
</g>
<polygon class="st1" points="211.1,60 211.1,101 205.8,101 205.8,103.1 213.2,103.1 213.2,60 "/>
<g>
	<polygon class="st1" points="244,60 244,101 238.1,101 238.7,103.1 246.1,103.1 246.1,60 	"/>
	<polygon class="st1" points="231.2,82.2 231.2,101 225.9,101 225.9,103.1 233.3,103.1 233.3,89.4 	"/>
</g>
<g>
	<path class="st1" d="M263.5,85.2h6.1v-2.1h-8.2c-0.7,0-1.4-0.2-2-0.5C260.1,84.1,261.7,85.2,263.5,85.2z"/>
	<polygon class="st1" points="266.3,87.9 264.2,88.4 264.2,93.6 266.3,93.6 	"/>
	<path class="st1" d="M276.6,60.5c0.3,0.6,0.5,1.3,0.5,2v8.7l-5.4,1.2V75l7.5-1.7v-8.7C279.1,62.8,278.1,61.2,276.6,60.5z"/>
	<path class="st1" d="M276.6,78.3c0.3,0.6,0.5,1.3,0.5,2v16.2c0,2.5-2.1,4.6-4.6,4.6h-11.1c-0.7,0-1.4-0.2-2-0.5
		c0.7,1.5,2.3,2.6,4.1,2.6h11.1c2.5,0,4.6-2.1,4.6-4.6V82.3C279.1,80.5,278.1,79,276.6,78.3z"/>
	<polygon class="st1" points="264.2,65.3 264.2,75.7 266.3,75.7 266.3,67.4 269.6,67.4 269.6,65.3 	"/>
</g>
<g>
	<polygon class="st1" points="297.9,83.1 297.2,83.1 297.2,101 291.9,101 291.9,103.1 299.3,103.1 299.3,87.6 	"/>
	<polygon class="st1" points="313.1,60 310.3,60 304.1,79.4 311,101 305,101 305.5,102.8 305.6,103.1 313.1,103.1 306.2,81.5 	"/>
</g>
<polygon class="st1" points="330.4,60 330.4,101 325.1,101 325.1,103.1 332.5,103.1 332.5,60 "/>
<rect x="361.5" y="98.9" transform="matrix(0.7071 -0.7071 0.7071 0.7071 36.0668 287.8559)" class="st1" width="8.1" height="2.9"/>
<rect x="9.5" y="81.9" transform="matrix(0.7071 -0.7071 0.7071 0.7071 -54.9977 33.9657)" class="st1" width="8.1" height="2.9"/>
<g>
	<path class="st0" d="M55.6,71.2c0,1.4-0.6,2.6-1.7,3.5c0.9,1,1.7,2.1,1.7,3.7v14.1c0,2.5-2.1,4.6-4.6,4.6H35.4V53.9H51
		c2.5,0,4.6,2,4.6,4.6V71.2z M48.1,61.3h-5.4v10.4h5.4V61.3z M48.1,79.1h-5.4v10.5h5.4V79.1z"/>
	<path class="st0" d="M84,53.9c2.5,0,4.6,2,4.6,4.6v34c0,2.5-2.1,4.6-4.6,4.6H72.9c-2.5,0-4.6-2.1-4.6-4.6v-34c0-2.5,2-4.6,4.6-4.6
		H84z M81.1,61.3h-5.4v28.3h5.4V61.3z"/>
	<path class="st0" d="M114.6,97.1l-3-17.9h-2.8v17.9h-7.4V53.9H117c2.5,0,4.5,2,4.5,4.6v16.1c0,1.7-1,3.3-2.6,4.1l3.1,18.4H114.6z
		 M114.1,61.3h-5.4v10.4h5.4V61.3z"/>
	<path class="st0" d="M149,53.9c2.5,0,4.6,2,4.6,4.6v34c0,2.5-2.1,4.6-4.6,4.6h-11.1c-2.5,0-4.6-2.1-4.6-4.6v-34
		c0-2.5,2-4.6,4.6-4.6H149z M146.2,61.3h-5.4v28.3h5.4V61.3z"/>
	<path class="st0" d="M182.1,53.9c2.5,0,4.6,2,4.6,4.6v34c0,2.5-2.1,4.6-4.6,4.6h-15.6V53.9H182.1z M179.2,61.3h-5.4v28.3h5.4V61.3z
		"/>
	<path class="st0" d="M199.8,53.9h7.4V97h-7.4V53.9z"/>
	<path class="st0" d="M240.1,53.9V97h-7.4l-5.4-18.8V97h-7.4V53.9h7.3l5.4,17.7V53.9H240.1z"/>
	<path class="st0" d="M268.5,71.7c2.5,0,4.6,2,4.6,4.6v16.2c0,2.5-2.1,4.6-4.6,4.6h-11.1c-2.5,0-4.6-2.1-4.6-4.6v-8.9l7.4-1.7v7.7
		h5.4V79.1h-8.2c-2.5,0-4.6-2-4.6-4.6v-16c0-2.5,2-4.6,4.6-4.6h11.1c2.5,0,4.6,2,4.6,4.6v8.7l-7.5,1.7v-7.6h-5.4v10.4
		C260.2,71.7,268.5,71.7,268.5,71.7z"/>
	<path class="st0" d="M300.1,75.4L307,97h-7.5l-0.1-0.2l-5.5-17.7h-0.7V97h-7.4V53.9h7.4v17.8h0.6l5.7-17.8h7.5L300.1,75.4z"/>
	<path class="st0" d="M319.1,53.9h7.4V97h-7.4V53.9z"/>
</g>
</svg>
