<?xml version="1.0" encoding="utf-8"?>
<!-- Generator: Adobe Illustrator 21.1.0, SVG Export Plug-In . SVG Version: 6.00 Build 0)  -->
<svg version="1.1" id="Layer_2" xmlns="http://www.w3.org/2000/svg" xmlns:xlink="http://www.w3.org/1999/xlink" x="0px" y="0px"
	 viewBox="0 0 374.7 157.2" style="enable-background:new 0 0 374.7 157.2;" xml:space="preserve">
<style type="text/css">
	.st0{fill:#FFFFFF;}
	.st1{fill:#3F3F3F;}
	.st2{fill-rule:evenodd;clip-rule:evenodd;fill:#FFFFFF;}
</style>
<g>
	<path class="st0" d="M125.1,15.6c7.2-2.4,7.7-11.4,0.7-11.4c-1.9,0-4.3,1.4-5.9,4.2l-9.6,16.6c-0.4,0.8-0.9,1.4-1.4,2
		c-2.5-3.4-1.7-8.5,1.7-10.7l-1.4-1.8c-7.5,4.8-5.3,18.5,7.2,18.5C127,32.9,132,20.1,125.1,15.6z M116.3,30.2
		c-2.1,0-3.8-0.5-5.1-1.2c0.6-0.7,1.2-1.6,1.8-2.5l6-10.4l1,0.1C128.3,17.9,124.9,30.2,116.3,30.2z M120.2,14L123,9
		c2.6-4.5,5.9-1.8,4.1,1.5C125.8,13.1,123.8,13.9,120.2,14z"/>
	<path class="st0" d="M264.5,23.1l-0.2,0.3c-2,2.3-4.3,4.2-6.5,5c0.6-0.9,1-1.9,1.5-2.7l3.9-6.7c3.3-5.6-2.1-7.5-5.7-4.3l0.7-1.2
		h-3.6l-5.6,9.7c0,0,0,0,0,0l-0.2,0.3c-1.6,1.7-3.6,2.6-5.4,2.6l3.4-5.8c2.2-3.7,0.2-7.3-3.2-7.3c-2.7,0-4.9,1.1-6.9,4.7l-1.7,3
		l-1.5,2.5l-0.2,0.2c-2.6,3-5.1,5.3-6.6,5.3c-0.8,0-1.2-0.5-0.4-2l5.1-9c1.5-2.7,0.1-4.7-1.9-4.7c-1.5,0-3.2,0.9-5,2.7l5.7-9.9h-3.6
		l-9.9,17.2l-0.2,0.2c-1.3,1.5-2.9,2.9-4.3,3.9c1.1-3.4,0.9-8.6,3.1-13.1l-2.7-1.4c-1.5,2-4.7,6.7-7.9,10.4c0,0,0,0,0,0s0,0,0,0
		l-0.2,0.3c-2.6,3-5.1,5.3-6.6,5.3c-0.8,0-1.2-0.5-0.4-2l3.6-6.2c1.2-2.2,0.6-3.4-0.5-4.8l-2-2.4c-0.5-0.7-0.5-1.4,0.2-2.1l-1.8-2
		c-2,1.8-2.2,3.8-0.9,5.5l0.3,0.4c-1.6,2.2-3.7,5.2-6,8l-0.2,0.3c-2.6,3-5.9,5.3-8.3,5.3c-2.2,0-3.5-1.4-1.8-4.2l0.3-0.6
		c2.3,1,6.6,0.5,9.3-4.1l0.5-0.9c1.9-3.3,0.1-5.7-2.8-5.7c-2.9,0-5.2,1.5-6.7,4.1l-3.4,5.9l-0.2,0.2c-1.6,1.8-3.6,2.6-5.4,2.6
		l3.4-5.8c0.9-1.6,1.3-2.9,1.3-4.1c0-1.8-1.2-3.2-3.2-3.2c-0.9,0-1.6,0.3-2.3,0.8l4.5-7.8h-3.6l-10,17.2l-0.2,0.2
		c-2.6,3-5.1,5.3-6.6,5.3c-0.8,0-1.2-0.5-0.4-2l3.6-6.2c1.2-2.2,0.6-3.4-0.5-4.8l-2-2.4c-0.5-0.7-0.5-1.4,0.2-2.1l-1.8-2
		c-2,1.8-2.2,3.8-0.9,5.5l0.3,0.4c-1.6,2.2-3.7,5.2-6,8l-0.2,0.3c-2.6,3-5.1,5.3-6.6,5.3c-0.8,0-1.2-0.5-0.4-2l5.7-10.1h-2
		c0.1-1.5-1.4-3.6-3.7-3.6c-1.9,0-4.6,1.5-6.1,4.1l-5,8.6c-1.5,2.6-0.4,5.1,2.4,5.1c1.4,0,3.2-0.9,4.9-2.3c0.2,1.4,1.3,2.3,3.1,2.3
		c2.9,0,6.3-3.1,9.3-6.6l0,0c1.7-2,3-3.8,5.9-7.6l0.5,0.6c0.4,0.6,0.6,1.3,0.2,2l-3.8,6.5c-1.5,2.6-0.4,5.1,2.4,5.1
		c2.1,0,4.3-1.5,6.5-3.7c0,0,0,0,0,0c0,2.4,1.8,3.8,4.1,3.8c2,0,4.3-1,6.1-3.3c0.3,0,0.5,0,0.8,0c1.3,0,3.1-0.5,4.7-1.4
		c-0.2,2.6,1.7,4.5,4.8,4.5c4,0,8-3.1,11-6.6c1.7-2,3-3.8,5.9-7.6l0.5,0.6c0.4,0.6,0.6,1.3,0.2,2l-3.8,6.5c-1.5,2.6-0.4,5.1,2.4,5.1
		c2.9,0,6.3-3.1,9.3-6.6l0,0l0,0c2-2.3,3.8-4.8,5.1-6.5c-1.4,3.7-0.7,10.3-4,10.3c-1.2,0-1.7-1.3-1.7-1.3l-2.2,1.2
		c0,0,0.7,2.9,3.9,2.9c0.3,0,0.6,0,1-0.1c0,0,0.1,0,0.1,0c1.9-0.2,3.7-1.1,5.5-2.4l-1.2,2.1h3.6l5.4-9.4c5.5-6.9,7.9-6,6.4-3.4
		l-4.6,8c-1.5,2.6-0.4,5.1,2.4,5.1c2.1,0,4.4-1.6,6.6-3.7c0,4.5,6.3,5.4,10.1,0.6h0.8c1.1,0,2.5-0.3,3.8-0.9l-6.5,11.2h3.6
		l10.6-18.5c4-5.4,6.5-3.4,5.5-1.8l-5.4,9.3c-0.6,1-1.9,1.3-2.6,0l-2,1c0,0,0.7,2.9,3.9,2.9h0.2c5.2-0.1,8.6-3.2,11.5-6.6
		C265.6,23.8,265,23.3,264.5,23.1z M183.5,18.1c2.1-3.5,5.7-2.9,3.6,0.8l-0.5,0.9c-1.7,2.9-4,2.8-5.3,2.4L183.5,18.1z M137.9,23.7
		c-2.2,3.4-4.3,5-5.7,5c-0.8,0-1.2-0.5-0.4-2l5-8.7c1.9-3.3,5.7-2.5,4,0.8L137.9,23.7z M164.6,28.6c-0.8,0-1.4-0.5-1.4-1.4
		c0-0.5,0.2-1.1,0.6-1.8l1.3-2.2c0.3,1.5,1,2.9,2.3,3.7C166.6,28,165.5,28.6,164.6,28.6z M168.4,25.1c-0.9-0.7-1.5-1.8-1.5-3.2
		c0-2.5,2.5-6.7,4.5-6.7c0.8,0,1.3,0.6,1.3,1.5c0,0.6-0.2,1.3-0.7,2.1L168.4,25.1z M241.4,23.4h-0.2c-1.2,0-2.1,1-2.1,2.1
		c0,0.4,0.1,0.9,0.3,1.2l0,0.1c-1.7,2.9-5.7,2.3-3.6-1.4l2.7-4.7l1.7-2.9c2.5-4.2,5.9-2.6,3.8,1.1L241.4,23.4z"/>
</g>
<rect x="6.9" y="73.4" transform="matrix(0.7072 -0.7071 0.7071 0.7072 -51.5432 30.4418)" class="st0" width="8.1" height="8.1"/>
<rect x="358.9" y="73.4" transform="matrix(0.7072 -0.7071 0.7071 0.7072 51.5356 279.3238)" class="st0" width="8.1" height="8.1"/>
<g>
	<polygon class="st1" points="52.1,77.6 54.1,77.6 54.1,69.3 57.4,69.3 57.4,67.2 52.1,67.2 	"/>
	<path class="st1" d="M67,79.2V66.5c0-1.8-1.1-3.3-2.6-4.1c0.3,0.6,0.5,1.3,0.5,2v12.7c0,1.4-0.6,2.6-1.7,3.5c0.9,1,1.7,2.1,1.7,3.7
		v14.1c0,2.5-2.1,4.6-4.6,4.6H46.8v2.1h15.6c2.5,0,4.6-2.1,4.6-4.6V86.4c0-1.6-0.7-2.7-1.7-3.7C66.3,81.8,67,80.6,67,79.2z"/>
	<polygon class="st1" points="52.1,95.5 54.1,95.5 54.1,87.1 57.4,87.1 57.4,85 52.1,85 	"/>
</g>
<g>
	<polygon class="st1" points="85.1,95.5 87.2,95.5 87.2,69.3 90.4,69.3 90.4,67.2 85.1,67.2 	"/>
	<path class="st1" d="M97.4,62.4c0.3,0.6,0.5,1.3,0.5,2v34c0,2.5-2.1,4.6-4.6,4.6H82.2c-0.7,0-1.4-0.2-2-0.5
		c0.7,1.5,2.3,2.6,4.1,2.6h11.1c2.5,0,4.6-2.1,4.6-4.6v-34C100,64.7,98.9,63.2,97.4,62.4z"/>
</g>
<g>
	<polygon class="st1" points="118.1,77.6 120.2,77.6 120.2,69.3 123.4,69.3 123.4,67.2 118.1,67.2 	"/>
	<path class="st1" d="M130.3,86.7c1.6-0.7,2.6-2.3,2.6-4.1V66.5c0-1.8-1.1-3.4-2.6-4.1c0.3,0.6,0.5,1.3,0.5,2v16.1
		c0,1.7-1,3.3-2.6,4.1l3.1,18.4h-5.7l0.4,2.1h7.4L130.3,86.7z"/>
	<polygon class="st1" points="120.9,85 118.1,85 118.1,103 112.8,103 112.8,105 120.2,105 120.2,87.1 121.3,87.1 	"/>
</g>
<g>
	<polygon class="st1" points="150.1,95.5 152.2,95.5 152.2,69.3 155.5,69.3 155.5,67.2 150.1,67.2 	"/>
	<path class="st1" d="M162.4,62.4c0.3,0.6,0.5,1.3,0.5,2v34c0,2.5-2.1,4.6-4.6,4.6h-11.1c-0.7,0-1.4-0.2-2-0.5
		c0.7,1.5,2.3,2.6,4.1,2.6h11.1c2.5,0,4.6-2.1,4.6-4.6v-34C165,64.7,163.9,63.2,162.4,62.4z"/>
</g>
<g>
	<polygon class="st1" points="183.1,95.5 185.2,95.5 185.2,69.3 188.5,69.3 188.5,67.2 183.1,67.2 	"/>
	<path class="st1" d="M195.4,62.4c0.3,0.6,0.5,1.3,0.5,2v34c0,2.5-2.1,4.6-4.6,4.6h-13.6v2.1h15.6c2.5,0,4.6-2.1,4.6-4.6v-34
		C198,64.7,196.9,63.2,195.4,62.4z"/>
</g>
<polygon class="st1" points="216.5,61.9 216.5,103 211.2,103 211.2,105 218.6,105 218.6,61.9 "/>
<g>
	<polygon class="st1" points="249.4,61.9 249.4,103 243.5,103 244.1,105 251.5,105 251.5,61.9 	"/>
	<polygon class="st1" points="236.6,84.1 236.6,103 231.3,103 231.3,105 238.7,105 238.7,91.4 	"/>
</g>
<g>
	<path class="st1" d="M268.8,87.1h6.1V85h-8.2c-0.7,0-1.4-0.2-2-0.5C265.5,86.1,267,87.1,268.8,87.1z"/>
	<polygon class="st1" points="271.7,89.9 269.6,90.4 269.6,95.5 271.7,95.5 	"/>
	<path class="st1" d="M281.9,62.4c0.3,0.6,0.5,1.3,0.5,2v8.7l-5.4,1.2V77l7.5-1.7v-8.7C284.5,64.7,283.4,63.2,281.9,62.4z"/>
	<path class="st1" d="M281.9,80.2c0.3,0.6,0.5,1.3,0.5,2v16.2c0,2.5-2.1,4.6-4.6,4.6h-11.1c-0.7,0-1.4-0.2-2-0.5
		c0.7,1.5,2.3,2.6,4.1,2.6h11.1c2.5,0,4.6-2.1,4.6-4.6V84.3C284.5,82.5,283.4,81,281.9,80.2z"/>
	<polygon class="st1" points="269.6,67.2 269.6,77.6 271.7,77.6 271.7,69.3 274.9,69.3 274.9,67.2 	"/>
</g>
<g>
	<polygon class="st1" points="303.3,85 302.6,85 302.6,103 297.3,103 297.3,105 304.7,105 304.7,89.5 	"/>
	<polygon class="st1" points="318.4,61.9 315.7,61.9 309.4,81.3 316.3,103 310.3,103 310.9,104.8 311,105 318.4,105 311.5,83.4 	"/>
</g>
<polygon class="st1" points="335.8,61.9 335.8,103 330.5,103 330.5,105 337.9,105 337.9,61.9 "/>
<g id="UUIVGv.tif">
	<g>
		<path class="st2" d="M173.2,128c0.5,0,0.9,0,1.4,0c5.4,0.3,9.7,1.7,12.4,4.7c2.7-3,7-4.5,12.5-4.7c0.5,0,0.9,0,1.3,0
			c12.1,0.8,17.6,9.5,27.3,13.2c1.4,0.5,3.2,1.2,4.8,1c2.5-0.3,4.1-2.8,3.7-5.6c-0.3-3-3.3-5.6-6.6-4.2c-0.5,0.2-0.8,0.5-1.2,0.8
			c-0.3,0.2-0.5,0.8-1.2,0.6c-0.6-0.5,0-1.2,0.3-1.7c1.1-1.9,2.9-3.2,6.1-3c5.6,0.4,10.7,5.3,9.8,12.8
			c-1.9,11.2-12.1,14.1-24.2,15.2c-1.3,0-2.6,0-3.9,0c-12.5-0.7-21.4-5.1-28.8-11c-7.5,5.8-16.3,10.3-28.9,11c-1.3,0-2.6,0-3.9,0
			c-12.2-1.1-22.4-4-24.2-15.5c-0.7-8.2,4.2-12.2,9.8-12.6c3.1-0.2,5,1.1,6.1,3c0.3,0.5,0.8,1.2,0.3,1.7c-0.6,0.1-0.9-0.4-1.2-0.6
			c-0.7-0.7-1.5-1.2-2.8-1.2c-3.9-0.1-6.1,4.2-4.5,7.6c0.5,1.2,1.8,2.4,3.4,2.5c1.6,0.2,3.4-0.5,4.8-1c1.5-0.5,2.7-1.2,3.9-1.9
			C157.2,135,162.9,128.9,173.2,128z"/>
	</g>
</g>
<rect x="366.8" y="83.8" transform="matrix(0.7071 -0.7071 0.7071 0.7071 48.307 287.2239)" class="st1" width="8.1" height="2.9"/>
<rect x="14.8" y="83.8" transform="matrix(0.7071 -0.7071 0.7071 0.7071 -54.8003 38.3029)" class="st1" width="8.1" height="2.9"/>
<g>
	<path class="st0" d="M60.9,73.1c0,1.4-0.6,2.6-1.7,3.5c0.9,1,1.7,2.1,1.7,3.7v14.1c0,2.5-2.1,4.6-4.6,4.6H40.7V55.9h15.6
		c2.5,0,4.6,2,4.6,4.6V73.1z M53.5,63.3h-5.4v10.4h5.4V63.3z M53.5,81.1h-5.4v10.5h5.4V81.1z"/>
	<path class="st0" d="M89.4,55.9c2.5,0,4.6,2,4.6,4.6v34c0,2.5-2.1,4.6-4.6,4.6H78.3c-2.5,0-4.6-2.1-4.6-4.6v-34
		c0-2.5,2-4.6,4.6-4.6H89.4z M86.5,63.3h-5.4v28.3h5.4V63.3z"/>
	<path class="st0" d="M120,99l-3-17.9h-2.8V99h-7.4V55.9h15.6c2.5,0,4.5,2,4.5,4.6v16.1c0,1.7-1,3.3-2.6,4.1l3.1,18.4H120z
		 M119.5,63.3h-5.4v10.4h5.4V63.3z"/>
	<path class="st0" d="M154.4,55.9c2.5,0,4.6,2,4.6,4.6v34c0,2.5-2.1,4.6-4.6,4.6h-11.1c-2.5,0-4.6-2.1-4.6-4.6v-34
		c0-2.5,2-4.6,4.6-4.6H154.4z M151.5,63.3h-5.4v28.3h5.4V63.3z"/>
	<path class="st0" d="M187.4,55.9c2.5,0,4.6,2,4.6,4.6v34c0,2.5-2.1,4.6-4.6,4.6h-15.6V55.9H187.4z M184.5,63.3h-5.4v28.3h5.4V63.3z
		"/>
	<path class="st0" d="M205.2,55.9h7.4V99h-7.4V55.9z"/>
	<path class="st0" d="M245.4,55.9V99H238l-5.4-18.8V99h-7.4V55.9h7.3l5.4,17.7V55.9H245.4z"/>
	<path class="st0" d="M273.9,73.7c2.5,0,4.6,2,4.6,4.6v16.2c0,2.5-2.1,4.6-4.6,4.6h-11.1c-2.5,0-4.6-2.1-4.6-4.6v-8.9l7.4-1.7v7.7
		h5.4V81.1h-8.2c-2.5,0-4.6-2-4.6-4.6V60.4c0-2.5,2-4.6,4.6-4.6h11.1c2.5,0,4.6,2,4.6,4.6v8.7l-7.5,1.7v-7.6h-5.4v10.4H273.9z"/>
	<path class="st0" d="M305.5,77.4l6.9,21.6h-7.5l-0.1-0.2l-5.5-17.7h-0.7V99h-7.4V55.9h7.4v17.8h0.6l5.7-17.8h7.5L305.5,77.4z"/>
	<path class="st0" d="M324.4,55.9h7.4V99h-7.4V55.9z"/>
</g>
</svg>
