<?xml version="1.0" encoding="utf-8"?><svg xmlns="http://www.w3.org/2000/svg" xmlns:xlink="http://www.w3.org/1999/xlink"><symbol viewBox="0 0 17.8 38.1" id="fb" xmlns="http://www.w3.org/2000/svg"><path d="M11.8 38.1H3.9v-19H0v-6.6h3.9v-4C3.9 3.2 6.2 0 12.5 0h5.3v6.6h-3.3c-2.5 0-2.6.9-2.6 2.6v3.3h6l-.7 6.6h-5.3v19z"/></symbol><symbol viewBox="0 0 512 512" id="inst" xmlns="http://www.w3.org/2000/svg"><path d="M480 0H32C14.3 0 0 14.3 0 32v448c0 17.7 14.3 32 32 32h448c17.7 0 32-14.3 32-32V32c0-17.7-14.3-32-32-32zM192 256s5.1-64 64-64 64 64 64 64 1.8 64-64 64-64-64-64-64zm256 192H64V224h68.5c-2.7 10.3-4.5 20.9-4.5 32 0 70.7 57.3 128 128 128s128-57.3 128-128c0-11.1-1.9-21.7-4.5-32H448v224zm0-288h-96V64h96v96z"/></symbol><symbol id="login" viewBox="0 0 16 16" xml:space="preserve" xmlns="http://www.w3.org/2000/svg"><style>.cst0{opacity:.3;enable-background:new}</style><path id="cIn_alt_copy_3" class="cst0" d="M16 1v14c0 .6-.4 1-1 1H8c-.6 0-1-.4-1-1s.4-1 1-1h6V2H8c-.6 0-1-.4-1-1s.4-1 1-1h7c.6 0 1 .4 1 1zM0 8c0-.6.4-1 1-1h9c.6 0 1 .4 1 1s-.4 1-1 1H1c-.6 0-1-.4-1-1zm9 1V7h2v2H9zm-2 3l4-4-4-4v8z"/><path class="cst0" d="M7 7h2v2H7z"/></symbol></svg>